<?xml version="1.0" encoding="utf-8"?>
<!-- Generator: Adobe Illustrator 22.0.1, SVG Export Plug-In . SVG Version: 6.00 Build 0)  -->
<svg version="1.1" id="レイヤー_1" xmlns="http://www.w3.org/2000/svg" xmlns:xlink="http://www.w3.org/1999/xlink" x="0px"
	 y="0px" viewBox="0 0 297 29" style="enable-background:new 0 0 297 29;" xml:space="preserve">
<style type="text/css">
	.st0{fill:#0E0E0E;}
</style>
<g>
	<path class="st0" d="M0,0.7h2.7v27.6H0V0.7z"/>
	<path class="st0" d="M13.8,28.3V0.7h0.6l18.1,21.2V0.7h2.7v27.6h-0.6l-18-20.9v20.9H13.8z"/>
	<path class="st0" d="M46.4,0.7h13.7v2.7H49.2v8.7h10.9v2.7H49.2v13.6h-2.7V0.7z"/>
	<path class="st0" d="M82.4,0c4.1,0,7.6,1.4,10.4,4.2c2.8,2.8,4.2,6.2,4.2,10.3c0,4-1.4,7.5-4.2,10.3C90,27.6,86.6,29,82.6,29
		c-4,0-7.5-1.4-10.2-4.2c-2.8-2.8-4.2-6.2-4.2-10.2c0-2.7,0.6-5.1,1.9-7.4c1.3-2.3,3-4,5.2-5.3C77.5,0.6,79.8,0,82.4,0z M82.5,2.7
		c-2,0-3.9,0.5-5.7,1.6c-1.8,1.1-3.2,2.5-4.2,4.3c-1,1.8-1.5,3.8-1.5,6c0,3.3,1.1,6.1,3.4,8.3c2.2,2.3,5,3.4,8.1,3.4
		c2.1,0,4.1-0.5,5.9-1.6c1.8-1,3.2-2.5,4.2-4.3c1-1.8,1.5-3.8,1.5-6c0-2.2-0.5-4.2-1.5-5.9c-1-1.8-2.4-3.2-4.3-4.3
		C86.5,3.2,84.6,2.7,82.5,2.7z"/>
	<path class="st0" d="M106.9,0.7h5.4c3,0,5.1,0.1,6.1,0.4c1.6,0.4,2.9,1.2,3.9,2.4c1,1.2,1.5,2.8,1.5,4.6c0,1.5-0.3,2.8-1,4
		c-0.7,1.1-1.7,2-3,2.6c-1.3,0.6-3.1,0.9-5.4,0.9l9.8,12.8H121l-9.8-12.8h-1.5v12.8h-2.7V0.7z M109.6,3.4v9.4l4.7,0
		c1.8,0,3.2-0.2,4-0.5c0.9-0.4,1.6-0.9,2-1.7s0.7-1.6,0.7-2.6c0-0.9-0.2-1.8-0.7-2.5c-0.5-0.8-1.1-1.3-1.9-1.6
		c-0.8-0.3-2.1-0.5-4-0.5H109.6z"/>
	<path class="st0" d="M132.7,28.3l3.9-27.6h0.4l11.1,22.7l11-22.7h0.4l3.9,27.6h-2.7l-2.7-19.7l-9.6,19.7h-0.7l-9.7-19.9l-2.7,19.9
		H132.7z"/>
	<path class="st0" d="M184.9,0.7l12.7,27.6h-2.9l-4.3-9.1h-11.7l-4.2,9.1h-3l12.9-27.6H184.9z M184.5,6.6l-4.7,10h9.3L184.5,6.6z"/>
	<path class="st0" d="M201.5,3.4V0.7h14.9v2.7h-6.1v24.9h-2.8V3.4H201.5z"/>
	<path class="st0" d="M224.6,0.7h2.7v27.6h-2.7V0.7z"/>
	<path class="st0" d="M251.1,0c4.1,0,7.6,1.4,10.4,4.2c2.8,2.8,4.2,6.2,4.2,10.3c0,4-1.4,7.5-4.2,10.3c-2.8,2.8-6.2,4.2-10.1,4.2
		c-4,0-7.5-1.4-10.2-4.2c-2.8-2.8-4.2-6.2-4.2-10.2c0-2.7,0.6-5.1,1.9-7.4c1.3-2.3,3-4,5.2-5.3C246.2,0.6,248.6,0,251.1,0z
		 M251.3,2.7c-2,0-3.9,0.5-5.7,1.6c-1.8,1.1-3.2,2.5-4.2,4.3c-1,1.8-1.5,3.8-1.5,6c0,3.3,1.1,6.1,3.4,8.3c2.2,2.3,5,3.4,8.1,3.4
		c2.1,0,4.1-0.5,5.9-1.6c1.8-1,3.2-2.5,4.2-4.3c1-1.8,1.5-3.8,1.5-6c0-2.2-0.5-4.2-1.5-5.9c-1-1.8-2.4-3.2-4.3-4.3
		C255.3,3.2,253.3,2.7,251.3,2.7z"/>
	<path class="st0" d="M275.6,28.3V0.7h0.6l18.1,21.2V0.7h2.7v27.6h-0.6l-18-20.9v20.9H275.6z"/>
</g>
</svg>
