<?xml version="1.0" encoding="utf-8"?>
<!-- Generator: Adobe Illustrator 22.0.1, SVG Export Plug-In . SVG Version: 6.00 Build 0)  -->
<svg version="1.1" id="レイヤー_1" xmlns="http://www.w3.org/2000/svg" xmlns:xlink="http://www.w3.org/1999/xlink" x="0px"
	 y="0px" viewBox="0 0 265 81" style="enable-background:new 0 0 265 81;" xml:space="preserve">
<style type="text/css">
	.st0{fill:#FFFFFF;}
</style>
<g>
	<path class="st0" d="M61.8,0h17.3v2.9H64.8v9.4H79v2.9H64.8v11.8H79v2.9H61.8V0z"/>
	<path class="st0" d="M89.2,0h3.3l10,23.2L112.6,0h3.3l-13.1,30.1h-0.7L89.2,0z"/>
	<path class="st0" d="M127.1,0h17.3v2.9h-14.3v9.4h14.1v2.9h-14.1v11.8h14.1v2.9h-17.2V0z"/>
	<path class="st0" d="M156.5,30.1V0h0.7l20.1,23V0h3v30.1h-0.7L159.6,7.3v22.8H156.5z"/>
	<path class="st0" d="M190.9,2.9V0h16.5v2.9h-6.7v27.1h-3.1V2.9H190.9z"/>
	<path class="st0" d="M15,48.6l14.1,30.1h-3.3l-4.7-9.9h-13l-4.7,9.9H0l14.3-30.1H15z M14.6,55L9.4,65.8h10.3L14.6,55z"/>
	<path class="st0" d="M63.4,75.4l4.5,5.6h-3.7l-3.1-3.9c-2.5,1.5-5.2,2.3-8.3,2.3c-4.5,0-8.2-1.5-11.3-4.6
		c-3.1-3.1-4.6-6.7-4.6-11.1c0-2.9,0.7-5.6,2.1-8c1.4-2.5,3.3-4.4,5.7-5.8c2.4-1.4,5.1-2.1,8-2.1c4.5,0,8.2,1.5,11.3,4.6
		c3.1,3,4.6,6.8,4.6,11.2c0,2.3-0.4,4.4-1.3,6.4C66.5,71.9,65.2,73.7,63.4,75.4z M61.5,73c2.6-2.6,3.9-5.7,3.9-9.4
		c0-2.4-0.6-4.5-1.7-6.5c-1.1-1.9-2.7-3.5-4.7-4.6c-2-1.2-4.2-1.7-6.4-1.7c-2.3,0-4.4,0.6-6.4,1.7c-2,1.2-3.6,2.7-4.7,4.7
		c-1.1,2-1.7,4.2-1.7,6.6c0,3.6,1.2,6.6,3.7,9.1c2.5,2.5,5.5,3.7,9,3.7c2.4,0,4.6-0.6,6.6-1.7l-6.7-8.5h3.7L61.5,73z"/>
	<path class="st0" d="M81.1,48.6h3v18.1c0,2.2,0,3.5,0.1,4c0.2,1.2,0.5,2.2,1,3c0.5,0.8,1.4,1.5,2.5,2c1.1,0.5,2.3,0.8,3.4,0.8
		c1,0,2-0.2,2.9-0.6s1.7-1,2.3-1.8s1.1-1.7,1.4-2.7c0.2-0.8,0.3-2.3,0.3-4.7V48.6h3v18.1c0,2.7-0.3,4.9-0.8,6.5
		c-0.5,1.7-1.6,3.1-3.2,4.3c-1.6,1.2-3.5,1.8-5.7,1.8c-2.4,0-4.5-0.6-6.3-1.7S82.3,75,81.7,73c-0.4-1.2-0.6-3.3-0.6-6.3V48.6z"/>
	<path class="st0" d="M125.6,48.6l14.1,30.1h-3.3l-4.7-9.9h-13l-4.7,9.9h-3.4l14.3-30.1H125.6z M125.2,55L120,65.8h10.3L125.2,55z"
		/>
	<path class="st0" d="M150.7,48.6h6c3.3,0,5.6,0.1,6.8,0.4c1.8,0.4,3.2,1.3,4.4,2.6c1.1,1.3,1.7,3,1.7,5c0,1.6-0.4,3.1-1.2,4.3
		c-0.8,1.2-1.9,2.2-3.3,2.8c-1.4,0.6-3.4,1-5.9,1l10.8,14h-3.7l-10.8-14h-1.7v14h-3V48.6z M153.7,51.5v10.2l5.2,0
		c2,0,3.5-0.2,4.5-0.6c1-0.4,1.7-1,2.3-1.8c0.5-0.8,0.8-1.8,0.8-2.8c0-1-0.3-1.9-0.8-2.7c-0.5-0.8-1.3-1.4-2.2-1.8
		c-0.9-0.4-2.4-0.5-4.4-0.5H153.7z"/>
	<path class="st0" d="M181.9,48.6h3v30.1h-3V48.6z"/>
	<path class="st0" d="M198.8,48.6h3v18.1c0,2.2,0,3.5,0.1,4c0.2,1.2,0.5,2.2,1,3c0.5,0.8,1.4,1.5,2.5,2s2.3,0.8,3.4,0.8
		c1,0,2-0.2,2.9-0.6s1.7-1,2.3-1.8c0.6-0.7,1.1-1.7,1.4-2.7c0.2-0.8,0.3-2.3,0.3-4.7V48.6h3v18.1c0,2.7-0.3,4.9-0.8,6.5
		c-0.5,1.7-1.6,3.1-3.2,4.3c-1.6,1.2-3.5,1.8-5.7,1.8c-2.4,0-4.5-0.6-6.3-1.7s-2.9-2.7-3.5-4.6c-0.4-1.2-0.6-3.3-0.6-6.3V48.6z"/>
	<path class="st0" d="M231,78.6l4.3-30.1h0.5L248,73.2l12.1-24.7h0.5l4.3,30.1h-3l-3-21.5l-10.7,21.5h-0.8L236.8,57l-3,21.7H231z"/>
</g>
</svg>
