<?xml version="1.0" encoding="utf-8"?>
<!-- Generator: Adobe Illustrator 22.0.1, SVG Export Plug-In . SVG Version: 6.00 Build 0)  -->
<svg version="1.1" id="レイヤー_1" xmlns="http://www.w3.org/2000/svg" xmlns:xlink="http://www.w3.org/1999/xlink" x="0px"
	 y="0px" viewBox="0 0 265 81" style="enable-background:new 0 0 265 81;" xml:space="preserve">
<style type="text/css">
	.st0{fill:#FFFFFF;}
</style>
<g>
	<path class="st0" d="M40.5,0.7h15.1v2.9H43.5V13h12.1v2.9H43.5v14.6h-3V0.7z"/>
	<path class="st0" d="M67.1,0.7h3v26.9h11.6v2.9H67.1V0.7z"/>
	<path class="st0" d="M105.1,0c4.6,0,8.4,1.5,11.5,4.5s4.6,6.7,4.6,11.1c0,4.4-1.5,8.1-4.6,11.1s-6.8,4.6-11.2,4.6
		c-4.5,0-8.2-1.5-11.3-4.5s-4.6-6.7-4.6-11c0-2.9,0.7-5.5,2.1-8s3.3-4.4,5.7-5.7C99.7,0.7,102.3,0,105.1,0z M105.3,2.9
		c-2.2,0-4.3,0.6-6.3,1.7c-2,1.1-3.6,2.7-4.7,4.6c-1.1,1.9-1.7,4.1-1.7,6.5c0,3.5,1.2,6.5,3.7,9c2.5,2.4,5.5,3.7,9,3.7
		c2.3,0,4.5-0.6,6.5-1.7c2-1.1,3.5-2.7,4.7-4.6c1.1-1.9,1.7-4.1,1.7-6.5c0-2.4-0.6-4.5-1.7-6.4c-1.1-1.9-2.7-3.4-4.7-4.6
		C109.7,3.5,107.5,2.9,105.3,2.9z"/>
	<path class="st0" d="M130.5,0.7h3.1l6.2,21.4l8.6-21.4h0.6l8.5,21.4l6.3-21.4h3.1l-8.7,29.8h-0.6l-9-22.5l-9.1,22.5h-0.6L130.5,0.7
		z"/>
	<path class="st0" d="M178.3,0.7h17.3v2.9h-14.3V13h14.1v2.9h-14.1v11.7h14.1v2.9h-17.2V0.7z"/>
	<path class="st0" d="M207.8,0.7h6c3.3,0,5.6,0.1,6.8,0.4c1.8,0.4,3.2,1.3,4.4,2.6c1.1,1.3,1.7,3,1.7,4.9c0,1.6-0.4,3-1.2,4.3
		c-0.8,1.2-1.9,2.2-3.3,2.8c-1.4,0.6-3.4,0.9-5.9,1l10.8,13.8h-3.7l-10.8-13.8h-1.7v13.8h-3V0.7z M210.8,3.7v10.1l5.2,0
		c2,0,3.5-0.2,4.5-0.6c1-0.4,1.7-1,2.3-1.8c0.5-0.8,0.8-1.8,0.8-2.8c0-1-0.3-1.9-0.8-2.7c-0.5-0.8-1.3-1.4-2.2-1.7
		c-0.9-0.4-2.4-0.5-4.4-0.5H210.8z"/>
	<path class="st0" d="M15,48.9l14.1,29.8h-3.3l-4.7-9.8h-13l-4.7,9.8H0l14.3-29.8H15z M14.6,55.2L9.4,66h10.3L14.6,55.2z"/>
	<path class="st0" d="M63.4,75.4l4.5,5.6h-3.7l-3.1-3.8c-2.5,1.5-5.2,2.2-8.3,2.2c-4.5,0-8.2-1.5-11.3-4.5c-3.1-3-4.6-6.7-4.6-11
		c0-2.9,0.7-5.5,2.1-8s3.3-4.4,5.7-5.7c2.4-1.4,5.1-2.1,8-2.1c4.5,0,8.2,1.5,11.3,4.5c3.1,3,4.6,6.7,4.6,11.1c0,2.3-0.4,4.4-1.3,6.3
		C66.5,72,65.2,73.8,63.4,75.4z M61.5,73.1c2.6-2.5,3.9-5.6,3.9-9.3c0-2.4-0.6-4.5-1.7-6.4c-1.1-1.9-2.7-3.4-4.7-4.6
		c-2-1.1-4.2-1.7-6.4-1.7c-2.3,0-4.4,0.6-6.4,1.7c-2,1.1-3.6,2.7-4.7,4.6c-1.1,2-1.7,4.1-1.7,6.5c0,3.5,1.2,6.5,3.7,9
		c2.5,2.4,5.5,3.7,9,3.7c2.4,0,4.6-0.6,6.6-1.7l-6.7-8.4h3.7L61.5,73.1z"/>
	<path class="st0" d="M81.1,48.9h3v18c0,2.1,0,3.5,0.1,4c0.2,1.2,0.5,2.2,1,2.9c0.5,0.8,1.4,1.4,2.5,2c1.1,0.5,2.3,0.8,3.4,0.8
		c1,0,2-0.2,2.9-0.6c0.9-0.4,1.7-1,2.3-1.7s1.1-1.6,1.4-2.7c0.2-0.8,0.3-2.3,0.3-4.7v-18h3v18c0,2.7-0.3,4.8-0.8,6.4
		c-0.5,1.6-1.6,3.1-3.2,4.3c-1.6,1.2-3.5,1.8-5.7,1.8c-2.4,0-4.5-0.6-6.3-1.7c-1.7-1.1-2.9-2.7-3.5-4.6c-0.4-1.2-0.6-3.3-0.6-6.3
		V48.9z"/>
	<path class="st0" d="M125.6,48.9l14.1,29.8h-3.3l-4.7-9.8h-13l-4.7,9.8h-3.4l14.3-29.8H125.6z M125.2,55.2L120,66h10.3L125.2,55.2z
		"/>
	<path class="st0" d="M150.7,48.9h6c3.3,0,5.6,0.1,6.8,0.4c1.8,0.4,3.2,1.3,4.4,2.6c1.1,1.3,1.7,3,1.7,4.9c0,1.6-0.4,3-1.2,4.3
		c-0.8,1.2-1.9,2.2-3.3,2.8c-1.4,0.6-3.4,0.9-5.9,1L170,78.7h-3.7l-10.8-13.8h-1.7v13.8h-3V48.9z M153.7,51.8v10.1l5.2,0
		c2,0,3.5-0.2,4.5-0.6c1-0.4,1.7-1,2.3-1.8c0.5-0.8,0.8-1.8,0.8-2.8c0-1-0.3-1.9-0.8-2.7c-0.5-0.8-1.3-1.4-2.2-1.7
		c-0.9-0.4-2.4-0.5-4.4-0.5H153.7z"/>
	<path class="st0" d="M181.9,48.9h3v29.8h-3V48.9z"/>
	<path class="st0" d="M198.8,48.9h3v18c0,2.1,0,3.5,0.1,4c0.2,1.2,0.5,2.2,1,2.9c0.5,0.8,1.4,1.4,2.5,2s2.3,0.8,3.4,0.8
		c1,0,2-0.2,2.9-0.6c0.9-0.4,1.7-1,2.3-1.7c0.6-0.7,1.1-1.6,1.4-2.7c0.2-0.8,0.3-2.3,0.3-4.7v-18h3v18c0,2.7-0.3,4.8-0.8,6.4
		c-0.5,1.6-1.6,3.1-3.2,4.3c-1.6,1.2-3.5,1.8-5.7,1.8c-2.4,0-4.5-0.6-6.3-1.7c-1.7-1.1-2.9-2.7-3.5-4.6c-0.4-1.2-0.6-3.3-0.6-6.3
		V48.9z"/>
	<path class="st0" d="M231,78.7l4.3-29.8h0.5L248,73.3l12.1-24.4h0.5l4.3,29.8h-3l-3-21.3l-10.7,21.3h-0.8l-10.8-21.4l-3,21.4H231z"
		/>
</g>
</svg>
