<?xml version="1.0" encoding="utf-8"?>
<!-- Generator: Adobe Illustrator 22.0.1, SVG Export Plug-In . SVG Version: 6.00 Build 0)  -->
<svg version="1.1" id="レイヤー_1" xmlns="http://www.w3.org/2000/svg" xmlns:xlink="http://www.w3.org/1999/xlink" x="0px"
	 y="0px" viewBox="0 0 265 81" style="enable-background:new 0 0 265 81;" xml:space="preserve">
<style type="text/css">
	.st0{fill:#FFFFFF;}
</style>
<g>
	<path class="st0" d="M67.5,0c4.6,0,8.4,1.5,11.5,4.5s4.6,6.7,4.6,11.2c0,4.4-1.5,8.1-4.6,11.1s-6.8,4.6-11.2,4.6
		c-4.5,0-8.2-1.5-11.3-4.6c-3.1-3-4.6-6.7-4.6-11c0-2.9,0.7-5.5,2.1-8s3.3-4.4,5.7-5.8C62.1,0.7,64.7,0,67.5,0z M67.7,2.9
		c-2.2,0-4.3,0.6-6.3,1.7c-2,1.2-3.6,2.7-4.7,4.7c-1.1,2-1.7,4.1-1.7,6.5c0,3.6,1.2,6.6,3.7,9c2.5,2.4,5.5,3.7,9,3.7
		c2.3,0,4.5-0.6,6.5-1.7c2-1.1,3.5-2.7,4.7-4.6c1.1-2,1.7-4.1,1.7-6.5c0-2.4-0.6-4.5-1.7-6.4c-1.1-1.9-2.7-3.5-4.7-4.6
		C72.1,3.5,69.9,2.9,67.7,2.9z"/>
	<path class="st0" d="M96.3,0.8h6c3.3,0,5.6,0.1,6.8,0.4c1.8,0.4,3.2,1.3,4.4,2.6c1.1,1.3,1.7,3,1.7,4.9c0,1.6-0.4,3.1-1.2,4.3
		c-0.8,1.2-1.9,2.2-3.3,2.8c-1.4,0.6-3.4,1-5.9,1l10.8,13.9h-3.7L101,16.8h-1.7v13.9h-3V0.8z M99.3,3.7v10.2l5.2,0
		c2,0,3.5-0.2,4.5-0.6c1-0.4,1.7-1,2.3-1.8c0.5-0.8,0.8-1.8,0.8-2.8c0-1-0.3-1.9-0.8-2.7c-0.5-0.8-1.3-1.4-2.2-1.8
		c-0.9-0.4-2.4-0.5-4.4-0.5H99.3z"/>
	<path class="st0" d="M127.7,30.7V0.8h6.3c4.5,0,7.8,0.4,9.8,1.1c2.9,1,5.2,2.8,6.9,5.3c1.6,2.5,2.5,5.5,2.5,9c0,3-0.7,5.6-2,7.9
		s-3,4-5.1,5c-2.1,1.1-5,1.6-8.8,1.6H127.7z M130.6,27.8h3.5c4.2,0,7.1-0.3,8.7-0.8c2.3-0.7,4.1-2,5.4-4c1.3-1.9,1.9-4.2,1.9-7
		c0-2.9-0.7-5.3-2.1-7.4c-1.4-2-3.4-3.4-5.9-4.2c-1.9-0.6-5-0.9-9.3-0.9h-2.1V27.8z"/>
	<path class="st0" d="M165.6,0.8h17.3v2.9h-14.3v9.4h14.1V16h-14.1v11.8h14.1v2.9h-17.2V0.8z"/>
	<path class="st0" d="M195.1,0.8h6c3.3,0,5.6,0.1,6.8,0.4c1.8,0.4,3.2,1.3,4.4,2.6c1.1,1.3,1.7,3,1.7,4.9c0,1.6-0.4,3.1-1.2,4.3
		c-0.8,1.2-1.9,2.2-3.3,2.8c-1.4,0.6-3.4,1-5.9,1l10.8,13.9h-3.7l-10.8-13.9h-1.7v13.9h-3V0.8z M198.1,3.7v10.2l5.2,0
		c2,0,3.5-0.2,4.5-0.6c1-0.4,1.7-1,2.3-1.8c0.5-0.8,0.8-1.8,0.8-2.8c0-1-0.3-1.9-0.8-2.7c-0.5-0.8-1.3-1.4-2.2-1.8
		c-0.9-0.4-2.4-0.5-4.4-0.5H198.1z"/>
	<path class="st0" d="M15,48.7l14.1,29.9h-3.3l-4.7-9.8h-13l-4.7,9.8H0l14.3-29.9H15z M14.6,55.1L9.4,65.9h10.3L14.6,55.1z"/>
	<path class="st0" d="M63.4,75.4l4.5,5.6h-3.7l-3.1-3.9c-2.5,1.5-5.2,2.3-8.3,2.3c-4.5,0-8.2-1.5-11.3-4.6c-3.1-3-4.6-6.7-4.6-11
		c0-2.9,0.7-5.5,2.1-8s3.3-4.4,5.7-5.8c2.4-1.4,5.1-2.1,8-2.1c4.5,0,8.2,1.5,11.3,4.5c3.1,3,4.6,6.8,4.6,11.2c0,2.3-0.4,4.4-1.3,6.3
		C66.5,71.9,65.2,73.7,63.4,75.4z M61.5,73.1c2.6-2.5,3.9-5.7,3.9-9.4c0-2.4-0.6-4.5-1.7-6.4c-1.1-1.9-2.7-3.5-4.7-4.6
		c-2-1.2-4.2-1.7-6.4-1.7c-2.3,0-4.4,0.6-6.4,1.7c-2,1.1-3.6,2.7-4.7,4.7c-1.1,2-1.7,4.1-1.7,6.5c0,3.6,1.2,6.6,3.7,9
		c2.5,2.4,5.5,3.7,9,3.7c2.4,0,4.6-0.6,6.6-1.7l-6.7-8.5h3.7L61.5,73.1z"/>
	<path class="st0" d="M81.1,48.7h3v18.1c0,2.1,0,3.5,0.1,4c0.2,1.2,0.5,2.2,1,3c0.5,0.8,1.4,1.5,2.5,2c1.1,0.5,2.3,0.8,3.4,0.8
		c1,0,2-0.2,2.9-0.6c0.9-0.4,1.7-1,2.3-1.7s1.1-1.6,1.4-2.7c0.2-0.8,0.3-2.3,0.3-4.7V48.7h3v18.1c0,2.7-0.3,4.8-0.8,6.5
		c-0.5,1.6-1.6,3.1-3.2,4.3c-1.6,1.2-3.5,1.8-5.7,1.8c-2.4,0-4.5-0.6-6.3-1.7c-1.7-1.2-2.9-2.7-3.5-4.6c-0.4-1.2-0.6-3.3-0.6-6.3
		V48.7z"/>
	<path class="st0" d="M125.6,48.7l14.1,29.9h-3.3l-4.7-9.8h-13l-4.7,9.8h-3.4l14.3-29.9H125.6z M125.2,55.1L120,65.9h10.3
		L125.2,55.1z"/>
	<path class="st0" d="M150.7,48.7h6c3.3,0,5.6,0.1,6.8,0.4c1.8,0.4,3.2,1.3,4.4,2.6c1.1,1.3,1.7,3,1.7,4.9c0,1.6-0.4,3.1-1.2,4.3
		c-0.8,1.2-1.9,2.2-3.3,2.8c-1.4,0.6-3.4,1-5.9,1L170,78.6h-3.7l-10.8-13.9h-1.7v13.9h-3V48.7z M153.7,51.7v10.2l5.2,0
		c2,0,3.5-0.2,4.5-0.6c1-0.4,1.7-1,2.3-1.8c0.5-0.8,0.8-1.8,0.8-2.8c0-1-0.3-1.9-0.8-2.7c-0.5-0.8-1.3-1.4-2.2-1.8
		c-0.9-0.4-2.4-0.5-4.4-0.5H153.7z"/>
	<path class="st0" d="M181.9,48.7h3v29.9h-3V48.7z"/>
	<path class="st0" d="M198.8,48.7h3v18.1c0,2.1,0,3.5,0.1,4c0.2,1.2,0.5,2.2,1,3c0.5,0.8,1.4,1.5,2.5,2c1.1,0.5,2.3,0.8,3.4,0.8
		c1,0,2-0.2,2.9-0.6c0.9-0.4,1.7-1,2.3-1.7c0.6-0.7,1.1-1.6,1.4-2.7c0.2-0.8,0.3-2.3,0.3-4.7V48.7h3v18.1c0,2.7-0.3,4.8-0.8,6.5
		c-0.5,1.6-1.6,3.1-3.2,4.3c-1.6,1.2-3.5,1.8-5.7,1.8c-2.4,0-4.5-0.6-6.3-1.7c-1.7-1.2-2.9-2.7-3.5-4.6c-0.4-1.2-0.6-3.3-0.6-6.3
		V48.7z"/>
	<path class="st0" d="M231,78.6l4.3-29.9h0.5L248,73.3l12.1-24.5h0.5l4.3,29.9h-3l-3-21.4l-10.7,21.4h-0.8l-10.8-21.6l-3,21.6H231z"
		/>
</g>
</svg>
