<svg style="display:none" xmlns:xlink="http://www.w3.org/1999/xlink"><symbol id="icon-btnarrow" viewBox="0 0 51 6"><polygon points="51,6 0,6 0,4 44.4,4 41,1.7 42.1,0"></polygon></symbol><symbol id="icon-mail" viewBox="0 0 25 19"><path d="M0,0v19h25V0H0z M22.4,2.1l-9.9,8.1L2.6,2.1H22.4z M2.1,16.9V4.4L12.5,13l10.4-8.6v12.5H2.1z"></path></symbol><symbol id="icon-flowarrow" viewBox="0 0 15 24"><path d="M525,2745l3.057-3L540,2754l-11.943,12L525,2763l9-9Z" transform="translate(-525 -2742)"></path></symbol><symbol id="icon-navarrow" viewBox="0 0 15 24"><path d="M575,207l3.057-3L590,216l-11.943,12L575,225l9-9Z" transform="translate(-575 -204)"></path></symbol><symbol id="logo" viewBox="0 0 280 87"><g><path d="M102,84.2c-10.8,0-21.2-4.5-28.7-12.2c-0.4-0.4-0.8-0.8-1.1-1.2c0,0-0.1-0.1-0.1-0.1 c-6.7-7.5-10.4-17.1-10.4-27.2c0-10.1,3.6-19.6,10.2-27.1c0.1-0.1,0.2-0.2,0.3-0.3c0.3-0.4,0.7-0.7,1-1.1 C80.8,7.3,91.2,2.8,102,2.8c10.8,0,20.9,4.2,28.5,11.9l1.9-2C124.3,4.5,113.5,0,102,0C91,0,80.5,4.3,72.5,11.8 C64.5,4.2,54.1,0,43.1,0C19.3,0,0,19.5,0,43.5C0,67.5,19.3,87,43.1,87c11,0,21.4-4.2,29.4-11.8C80.5,82.7,91,87,102,87 c11.5,0,22.3-4.5,30.5-12.7l-1.9-2C122.9,80,112.8,84.2,102,84.2z"></path><g><path d="M91.2,57.8v7.7h-1v-1.3c-0.4,0.5-0.9,0.9-1.4,1.1c-0.5,0.3-1.1,0.4-1.7,0.4c-1.1,0-2-0.4-2.8-1.2 c-0.8-0.8-1.1-1.7-1.1-2.9c0-1.1,0.4-2,1.2-2.8c0.8-0.8,1.7-1.2,2.8-1.2c0.6,0,1.2,0.1,1.7,0.4c0.5,0.3,1,0.7,1.3,1.2v-1.4H91.2z M87.2,58.6c-0.5,0-1.1,0.1-1.5,0.4c-0.5,0.3-0.8,0.6-1.1,1.1c-0.3,0.5-0.4,1-0.4,1.5c0,0.5,0.1,1.1,0.4,1.5s0.6,0.9,1.1,1.1 c0.5,0.3,1,0.4,1.5,0.4c0.5,0,1-0.1,1.5-0.4s0.9-0.6,1.1-1.1c0.3-0.5,0.4-1,0.4-1.6c0-0.9-0.3-1.6-0.9-2.2S88.1,58.6,87.2,58.6z"></path><path d="M95.2,64c0.2,0,0.4,0.1,0.6,0.3s0.3,0.4,0.3,0.6c0,0.2-0.1,0.4-0.3,0.6c-0.2,0.2-0.4,0.3-0.6,0.3 c-0.2,0-0.4-0.1-0.6-0.3c-0.2-0.2-0.3-0.4-0.3-0.6c0-0.2,0.1-0.4,0.3-0.6S95,64,95.2,64z"></path><path d="M106.4,57.8v7.7h-1v-1.3c-0.4,0.5-0.9,0.9-1.4,1.1c-0.5,0.3-1.1,0.4-1.7,0.4c-1.1,0-2-0.4-2.8-1.2 c-0.8-0.8-1.1-1.7-1.1-2.9c0-1.1,0.4-2,1.2-2.8c0.8-0.8,1.7-1.2,2.8-1.2c0.6,0,1.2,0.1,1.7,0.4c0.5,0.3,1,0.7,1.3,1.2v-1.4H106.4z M102.4,58.6c-0.5,0-1.1,0.1-1.5,0.4c-0.5,0.3-0.8,0.6-1.1,1.1c-0.3,0.5-0.4,1-0.4,1.5c0,0.5,0.1,1.1,0.4,1.5 c0.3,0.5,0.6,0.9,1.1,1.1c0.5,0.3,1,0.4,1.5,0.4c0.5,0,1-0.1,1.5-0.4c0.5-0.3,0.9-0.6,1.1-1.1c0.3-0.5,0.4-1,0.4-1.6 c0-0.9-0.3-1.6-0.9-2.2S103.3,58.6,102.4,58.6z"></path><path d="M110.4,64c0.2,0,0.4,0.1,0.6,0.3s0.3,0.4,0.3,0.6c0,0.2-0.1,0.4-0.3,0.6c-0.2,0.2-0.4,0.3-0.6,0.3 s-0.4-0.1-0.6-0.3c-0.2-0.2-0.3-0.4-0.3-0.6c0-0.2,0.1-0.4,0.3-0.6S110.2,64,110.4,64z"></path><path d="M121.4,59.4l-0.8,0.5c-0.7-0.9-1.6-1.3-2.8-1.3c-0.9,0-1.7,0.3-2.3,0.9c-0.6,0.6-0.9,1.3-0.9,2.2 c0,0.6,0.1,1.1,0.4,1.6s0.7,0.9,1.2,1.1s1,0.4,1.7,0.4c1.1,0,2-0.4,2.8-1.3l0.8,0.5c-0.4,0.6-0.9,1-1.5,1.3 c-0.6,0.3-1.3,0.5-2.1,0.5c-1.2,0-2.2-0.4-3-1.2c-0.8-0.8-1.2-1.7-1.2-2.8c0-0.7,0.2-1.4,0.6-2.1c0.4-0.6,0.9-1.1,1.5-1.5 c0.7-0.4,1.4-0.5,2.2-0.5c0.5,0,1,0.1,1.5,0.2c0.5,0.2,0.9,0.4,1.2,0.6C120.9,58.7,121.1,59.1,121.4,59.4z"></path><path d="M125,64c0.2,0,0.4,0.1,0.6,0.3c0.2,0.2,0.3,0.4,0.3,0.6c0,0.2-0.1,0.4-0.3,0.6c-0.2,0.2-0.4,0.3-0.6,0.3 s-0.4-0.1-0.6-0.3c-0.2-0.2-0.3-0.4-0.3-0.6c0-0.2,0.1-0.4,0.3-0.6C124.6,64,124.8,64,125,64z"></path></g><g><path d="M154.8,13.8v10h-1.3v-1.7c-0.5,0.7-1.1,1.2-1.8,1.5c-0.7,0.3-1.4,0.5-2.2,0.5c-1.4,0-2.6-0.5-3.6-1.5 c-1-1-1.5-2.3-1.5-3.8c0-1.4,0.5-2.7,1.5-3.7s2.2-1.5,3.7-1.5c0.8,0,1.6,0.2,2.2,0.5c0.7,0.3,1.2,0.9,1.8,1.6v-1.8H154.8z M149.7,14.8c-0.7,0-1.4,0.2-2,0.5c-0.6,0.4-1.1,0.8-1.4,1.5c-0.4,0.6-0.5,1.3-0.5,2c0,0.7,0.2,1.4,0.5,2c0.4,0.6,0.8,1.1,1.5,1.5 c0.6,0.4,1.3,0.5,2,0.5c0.7,0,1.4-0.2,2-0.5c0.6-0.4,1.1-0.8,1.5-1.4c0.3-0.6,0.5-1.3,0.5-2.1c0-1.2-0.4-2.1-1.1-2.9 C151.7,15.2,150.8,14.8,149.7,14.8z"></path><path d="M160.5,10.1h1.3v3.7h2v1.1h-2v8.9h-1.3v-8.9h-1.8v-1.1h1.8V10.1z"></path><path d="M177.1,13.8v10h-1.3v-1.7c-0.5,0.7-1.1,1.2-1.8,1.5c-0.7,0.3-1.4,0.5-2.2,0.5c-1.4,0-2.6-0.5-3.6-1.5 c-1-1-1.5-2.3-1.5-3.8c0-1.4,0.5-2.7,1.5-3.7s2.2-1.5,3.7-1.5c0.8,0,1.6,0.2,2.2,0.5c0.7,0.3,1.2,0.9,1.8,1.6v-1.8H177.1z M171.9,14.8c-0.7,0-1.4,0.2-2,0.5c-0.6,0.4-1.1,0.8-1.4,1.5c-0.4,0.6-0.5,1.3-0.5,2c0,0.7,0.2,1.4,0.5,2c0.4,0.6,0.8,1.1,1.5,1.5 c0.6,0.4,1.3,0.5,2,0.5c0.7,0,1.4-0.2,2-0.5c0.6-0.4,1.1-0.8,1.5-1.4c0.3-0.6,0.5-1.3,0.5-2.1c0-1.2-0.4-2.1-1.1-2.9 C174,15.2,173,14.8,171.9,14.8z"></path><path d="M181.8,10h1.3v13.9h-1.3V10z"></path><path d="M154.8,40.3v10h-1.3v-1.7c-0.5,0.7-1.1,1.2-1.8,1.5c-0.7,0.3-1.4,0.5-2.2,0.5c-1.4,0-2.6-0.5-3.6-1.5 c-1-1-1.5-2.3-1.5-3.8c0-1.4,0.5-2.7,1.5-3.7s2.2-1.5,3.7-1.5c0.8,0,1.6,0.2,2.2,0.5c0.7,0.3,1.2,0.9,1.8,1.6v-1.8H154.8z M149.7,41.3c-0.7,0-1.4,0.2-2,0.5c-0.6,0.4-1.1,0.8-1.4,1.5c-0.4,0.6-0.5,1.3-0.5,2c0,0.7,0.2,1.4,0.5,2c0.4,0.6,0.8,1.1,1.5,1.5 c0.6,0.4,1.3,0.5,2,0.5c0.7,0,1.4-0.2,2-0.5c0.6-0.4,1.1-0.8,1.5-1.4c0.3-0.6,0.5-1.3,0.5-2.1c0-1.2-0.4-2.1-1.1-2.9 C151.7,41.7,150.8,41.3,149.7,41.3z"></path><path d="M169.5,40.3V54h-1.3v-5.4c-0.5,0.7-1.1,1.2-1.8,1.5s-1.4,0.5-2.2,0.5c-1.4,0-2.6-0.5-3.6-1.5 c-1-1-1.5-2.3-1.5-3.8c0-1.4,0.5-2.7,1.5-3.7s2.2-1.5,3.7-1.5c0.8,0,1.6,0.2,2.2,0.5c0.7,0.3,1.3,0.9,1.8,1.6v-1.8H169.5z M164.4,41.3c-0.7,0-1.4,0.2-2,0.5c-0.6,0.4-1.1,0.8-1.4,1.5c-0.4,0.6-0.5,1.3-0.5,2c0,0.7,0.2,1.4,0.5,2c0.4,0.6,0.8,1.1,1.5,1.5 c0.6,0.4,1.3,0.5,2,0.5c0.7,0,1.4-0.2,2-0.5c0.6-0.4,1.1-0.8,1.5-1.4c0.3-0.6,0.5-1.3,0.5-2.1c0-1.2-0.4-2.1-1.1-2.9 C166.4,41.7,165.5,41.3,164.4,41.3z"></path><path d="M174.2,40.3h1.3V45c0,1.1,0.1,1.9,0.2,2.4c0.2,0.6,0.5,1.1,1.1,1.5s1.1,0.5,1.9,0.5c0.7,0,1.3-0.2,1.8-0.5 c0.5-0.3,0.8-0.8,1-1.4c0.1-0.4,0.2-1.2,0.2-2.5v-4.7h1.3v4.9c0,1.4-0.2,2.4-0.5,3.1c-0.3,0.7-0.8,1.2-1.5,1.6 c-0.6,0.4-1.5,0.6-2.4,0.6c-1,0-1.8-0.2-2.4-0.6c-0.7-0.4-1.1-0.9-1.5-1.7s-0.5-1.8-0.5-3.2V40.3z"></path><path d="M197.6,40.3v10h-1.3v-1.7c-0.5,0.7-1.1,1.2-1.8,1.5c-0.7,0.3-1.4,0.5-2.2,0.5c-1.4,0-2.6-0.5-3.6-1.5 c-1-1-1.5-2.3-1.5-3.8c0-1.4,0.5-2.7,1.5-3.7s2.2-1.5,3.7-1.5c0.8,0,1.6,0.2,2.2,0.5c0.7,0.3,1.2,0.9,1.8,1.6v-1.8H197.6z M192.5,41.3c-0.7,0-1.4,0.2-2,0.5c-0.6,0.4-1.1,0.8-1.4,1.5c-0.4,0.6-0.5,1.3-0.5,2c0,0.7,0.2,1.4,0.5,2c0.4,0.6,0.8,1.1,1.5,1.5 c0.6,0.4,1.3,0.5,2,0.5c0.7,0,1.4-0.2,2-0.5c0.6-0.4,1.1-0.8,1.5-1.4c0.3-0.6,0.5-1.3,0.5-2.1c0-1.2-0.4-2.1-1.1-2.9 C194.5,41.7,193.6,41.3,192.5,41.3z"></path><path d="M154.6,68.8l-1,0.6c-0.9-1.2-2.1-1.8-3.6-1.8c-1.2,0-2.2,0.4-3,1.2s-1.2,1.7-1.2,2.9c0,0.7,0.2,1.4,0.6,2.1 c0.4,0.6,0.9,1.1,1.5,1.5c0.6,0.4,1.4,0.5,2.2,0.5c1.5,0,2.7-0.6,3.6-1.8l1,0.7c-0.5,0.7-1.1,1.3-1.9,1.7 c-0.8,0.4-1.7,0.6-2.8,0.6c-1.6,0-2.9-0.5-3.9-1.5c-1-1-1.6-2.2-1.6-3.7c0-1,0.2-1.9,0.7-2.7c0.5-0.8,1.2-1.5,2-1.9 c0.9-0.5,1.8-0.7,2.9-0.7c0.7,0,1.3,0.1,1.9,0.3c0.6,0.2,1.1,0.5,1.6,0.8S154.3,68.3,154.6,68.8z"></path><path d="M163.2,66.5c1.5,0,2.8,0.6,3.8,1.7c0.9,1,1.4,2.2,1.4,3.6c0,1.4-0.5,2.6-1.5,3.7c-1,1-2.2,1.6-3.8,1.6 c-1.5,0-2.8-0.5-3.8-1.6c-1-1-1.5-2.3-1.5-3.7c0-1.4,0.5-2.6,1.4-3.6C160.4,67.1,161.7,66.5,163.2,66.5z M163.2,67.8 c-1.1,0-2,0.4-2.8,1.2c-0.8,0.8-1.2,1.7-1.2,2.9c0,0.7,0.2,1.4,0.5,2c0.4,0.6,0.8,1.1,1.4,1.5c0.6,0.3,1.3,0.5,2,0.5 c0.7,0,1.4-0.2,2-0.5c0.6-0.3,1.1-0.8,1.4-1.5c0.4-0.6,0.5-1.3,0.5-2c0-1.1-0.4-2.1-1.2-2.9C165.2,68.2,164.3,67.8,163.2,67.8z"></path><path d="M177.4,66.5c1.5,0,2.8,0.6,3.8,1.7c0.9,1,1.4,2.2,1.4,3.6c0,1.4-0.5,2.6-1.5,3.7c-1,1-2.2,1.6-3.8,1.6 c-1.5,0-2.8-0.5-3.8-1.6c-1-1-1.5-2.3-1.5-3.7c0-1.4,0.5-2.6,1.4-3.6C174.6,67.1,175.9,66.5,177.4,66.5z M177.4,67.8 c-1.1,0-2,0.4-2.8,1.2c-0.8,0.8-1.2,1.7-1.2,2.9c0,0.7,0.2,1.4,0.5,2c0.4,0.6,0.8,1.1,1.4,1.5c0.6,0.3,1.3,0.5,2,0.5 c0.7,0,1.4-0.2,2-0.5c0.6-0.3,1.1-0.8,1.4-1.5c0.4-0.6,0.5-1.3,0.5-2c0-1.1-0.4-2.1-1.2-2.9C179.4,68.2,178.5,67.8,177.4,67.8z"></path><path d="M186.7,66.8h1.3v1.5c0.4-0.6,0.8-1,1.2-1.3c0.4-0.3,0.9-0.4,1.4-0.4c0.4,0,0.7,0.1,1.1,0.3l-0.7,1.1 c-0.3-0.1-0.5-0.2-0.7-0.2c-0.4,0-0.8,0.2-1.2,0.5c-0.4,0.4-0.7,0.9-0.9,1.6c-0.2,0.6-0.2,1.7-0.2,3.5v3.4h-1.3V66.8z"></path><path d="M204.3,62.9v13.9H203v-1.7c-0.5,0.7-1.1,1.2-1.8,1.5c-0.7,0.3-1.4,0.5-2.2,0.5c-1.4,0-2.6-0.5-3.6-1.5 c-1-1-1.5-2.3-1.5-3.8c0-1.4,0.5-2.7,1.5-3.7s2.2-1.5,3.7-1.5c0.8,0,1.6,0.2,2.2,0.5c0.7,0.3,1.3,0.9,1.8,1.6v-5.7H204.3z M199.2,67.7c-0.7,0-1.4,0.2-2,0.5c-0.6,0.4-1.1,0.8-1.4,1.5c-0.4,0.6-0.5,1.3-0.5,2c0,0.7,0.2,1.4,0.5,2c0.4,0.6,0.8,1.1,1.5,1.5 c0.6,0.4,1.3,0.5,2,0.5c0.7,0,1.4-0.2,2-0.5c0.6-0.4,1.1-0.8,1.5-1.4c0.3-0.6,0.5-1.3,0.5-2.1c0-1.2-0.4-2.1-1.1-2.9 C201.2,68.1,200.3,67.7,199.2,67.7z"></path><path d="M209.7,62.6c0.3,0,0.5,0.1,0.8,0.3c0.2,0.2,0.3,0.5,0.3,0.8c0,0.3-0.1,0.5-0.3,0.7c-0.2,0.2-0.5,0.3-0.8,0.3 c-0.3,0-0.5-0.1-0.7-0.3c-0.2-0.2-0.3-0.5-0.3-0.7c0-0.3,0.1-0.5,0.3-0.8C209.2,62.7,209.4,62.6,209.7,62.6z M209.1,66.8h1.3v10 h-1.3V66.8z"></path><path d="M215.1,66.8h1.3v1.8c0.5-0.7,1.1-1.2,1.7-1.5c0.6-0.3,1.3-0.5,2-0.5c0.7,0,1.4,0.2,2,0.6s1,0.9,1.3,1.5 c0.3,0.6,0.4,1.6,0.4,3v5.2h-1.3V72c0-1.2,0-1.9-0.1-2.3c-0.1-0.7-0.4-1.2-0.9-1.5c-0.4-0.3-1-0.5-1.7-0.5c-0.8,0-1.5,0.3-2.1,0.8 c-0.6,0.5-1,1.2-1.2,1.9c-0.1,0.5-0.2,1.4-0.2,2.7v3.7h-1.3V66.8z"></path><path d="M238.4,66.8v10h-1.3v-1.7c-0.5,0.7-1.1,1.2-1.8,1.5c-0.7,0.3-1.4,0.5-2.2,0.5c-1.4,0-2.6-0.5-3.6-1.5 c-1-1-1.5-2.3-1.5-3.8c0-1.4,0.5-2.7,1.5-3.7c1-1,2.2-1.5,3.7-1.5c0.8,0,1.6,0.2,2.2,0.5c0.7,0.3,1.2,0.9,1.8,1.6v-1.8H238.4z M233.3,67.7c-0.7,0-1.4,0.2-2,0.5c-0.6,0.4-1.1,0.8-1.4,1.5c-0.4,0.6-0.5,1.3-0.5,2c0,0.7,0.2,1.4,0.5,2c0.4,0.6,0.8,1.1,1.5,1.5 c0.6,0.4,1.3,0.5,2,0.5c0.7,0,1.4-0.2,2-0.5c0.6-0.4,1.1-0.8,1.5-1.4c0.3-0.6,0.5-1.3,0.5-2.1c0-1.2-0.4-2.1-1.1-2.9 C235.4,68.1,234.4,67.7,233.3,67.7z"></path><path d="M244.1,63h1.3v3.7h2v1.1h-2v8.9h-1.3v-8.9h-1.8v-1.1h1.8V63z"></path><path d="M251.7,62.6c0.3,0,0.5,0.1,0.8,0.3c0.2,0.2,0.3,0.5,0.3,0.8c0,0.3-0.1,0.5-0.3,0.7c-0.2,0.2-0.5,0.3-0.8,0.3 c-0.3,0-0.5-0.1-0.7-0.3c-0.2-0.2-0.3-0.5-0.3-0.7c0-0.3,0.1-0.5,0.3-0.8C251.2,62.7,251.5,62.6,251.7,62.6z M251.1,66.8h1.3v10 h-1.3V66.8z"></path><path d="M261.8,66.5c1.5,0,2.8,0.6,3.8,1.7c0.9,1,1.4,2.2,1.4,3.6c0,1.4-0.5,2.6-1.5,3.7c-1,1-2.2,1.6-3.8,1.6 c-1.5,0-2.8-0.5-3.8-1.6c-1-1-1.5-2.3-1.5-3.7c0-1.4,0.5-2.6,1.4-3.6C258.9,67.1,260.2,66.5,261.8,66.5z M261.8,67.8 c-1.1,0-2,0.4-2.8,1.2c-0.8,0.8-1.2,1.7-1.2,2.9c0,0.7,0.2,1.4,0.5,2c0.4,0.6,0.8,1.1,1.4,1.5c0.6,0.3,1.3,0.5,2,0.5 c0.7,0,1.4-0.2,2-0.5c0.6-0.3,1.1-0.8,1.4-1.5c0.4-0.6,0.5-1.3,0.5-2c0-1.1-0.4-2.1-1.2-2.9C263.7,68.2,262.8,67.8,261.8,67.8z"></path><path d="M271.3,66.8h1.3v1.8c0.5-0.7,1.1-1.2,1.7-1.5c0.6-0.3,1.3-0.5,2-0.5c0.7,0,1.4,0.2,2,0.6s1,0.9,1.3,1.5 c0.3,0.6,0.4,1.6,0.4,3v5.2h-1.3V72c0-1.2,0-1.9-0.1-2.3c-0.1-0.7-0.4-1.2-0.9-1.5s-1-0.5-1.7-0.5c-0.8,0-1.5,0.3-2.1,0.8 c-0.6,0.5-1,1.2-1.2,1.9c-0.1,0.5-0.2,1.4-0.2,2.7v3.7h-1.3V66.8z"></path></g></g></symbol></svg>