<?xml version="1.0" encoding="utf-8"?>
<!-- Generator: Adobe Illustrator 22.0.1, SVG Export Plug-In . SVG Version: 6.00 Build 0)  -->
<svg version="1.1" id="レイヤー_1" xmlns="http://www.w3.org/2000/svg" xmlns:xlink="http://www.w3.org/1999/xlink" x="0px"
	 y="0px" viewBox="0 0 550 98" style="enable-background:new 0 0 550 98;" xml:space="preserve">
<g>
	<path d="M0,78.3l8-4.8C13.6,83.8,20,88.9,27.4,88.9c3.1,0,6.1-0.7,8.9-2.2c2.8-1.5,4.9-3.4,6.3-5.9c1.4-2.5,2.2-5.1,2.2-7.8
		c0-3.1-1.1-6.2-3.2-9.2c-2.9-4.1-8.3-9.1-16-15C17.7,43,12.8,38.8,10.9,36.2c-3.3-4.4-5-9.2-5-14.3c0-4.1,1-7.8,2.9-11.1
		c2-3.3,4.7-6,8.2-7.9C20.6,1,24.5,0,28.7,0c4.4,0,8.5,1.1,12.4,3.3c3.8,2.2,7.9,6.2,12.2,12l-7.6,5.8c-3.5-4.7-6.5-7.7-9-9.2
		c-2.5-1.5-5.2-2.2-8.1-2.2c-3.8,0-6.9,1.1-9.3,3.4c-2.4,2.3-3.6,5.1-3.6,8.4c0,2,0.4,4,1.3,5.9c0.8,1.9,2.4,4,4.6,6.2
		c1.2,1.2,5.3,4.3,12.1,9.3c8.1,6,13.7,11.3,16.7,15.9c3,4.7,4.5,9.3,4.5,14c0,6.8-2.6,12.6-7.7,17.6c-5.2,5-11.4,7.5-18.8,7.5
		c-5.7,0-10.8-1.5-15.5-4.5C8.2,90.4,3.9,85.4,0,78.3z"/>
	<path d="M82.3,2.3H136v9.1H91.7v29.2h43.9v9.1H91.7v36.7h43.9v9.1H82.3V2.3z"/>
	<path d="M162.1,2.3h18.7c10.4,0,17.4,0.4,21.1,1.3c5.6,1.3,10.1,4,13.6,8.2c3.5,4.2,5.2,9.3,5.2,15.4c0,5.1-1.2,9.5-3.6,13.4
		c-2.4,3.9-5.8,6.8-10.3,8.7c-4.5,2-10.6,3-18.5,3L222,95.7h-11.6l-33.7-43.3h-5.3v43.3h-9.4V2.3z M171.4,11.5v31.7l16.1,0.1
		c6.3,0,10.9-0.6,13.9-1.8c3-1.2,5.3-3.1,7-5.7c1.7-2.6,2.5-5.5,2.5-8.7c0-3.1-0.8-6-2.6-8.5c-1.7-2.6-3.9-4.4-6.7-5.5
		c-2.8-1.1-7.4-1.6-13.8-1.6H171.4z"/>
	<path d="M238.2,2.3h10.2l31,72.1L311,2.3h10.2l-40.7,93.3h-2L238.2,2.3z"/>
	<path d="M343.3,2.3h9.4v93.3h-9.4V2.3z"/>
	<path d="M470.9,19.7l-7.4,5.6c-4.1-5.3-9-9.3-14.7-12s-12-4.1-18.8-4.1c-7.5,0-14.4,1.8-20.8,5.4c-6.4,3.6-11.3,8.4-14.8,14.4
		s-5.3,12.8-5.3,20.3c0,11.4,3.9,20.9,11.7,28.5c7.8,7.6,17.7,11.4,29.6,11.4c13.1,0,24.1-5.1,32.9-15.4l7.4,5.6
		c-4.7,5.9-10.5,10.5-17.5,13.7c-7,3.2-14.8,4.9-23.4,4.9c-16.4,0-29.3-5.4-38.8-16.3c-7.9-9.2-11.9-20.3-11.9-33.2
		c0-13.7,4.8-25.2,14.4-34.5c9.6-9.3,21.7-14,36.1-14c8.7,0,16.6,1.7,23.7,5.2C460.6,8.6,466.4,13.4,470.9,19.7z"/>
	<path d="M496.3,2.3H550v9.1h-44.3v29.2h43.9v9.1h-43.9v36.7h43.9v9.1h-53.3V2.3z"/>
</g>
</svg>
