<?xml version="1.0" encoding="utf-8"?>
<!-- Generator: Adobe Illustrator 22.0.1, SVG Export Plug-In . SVG Version: 6.00 Build 0)  -->
<svg version="1.1" id="レイヤー_1" xmlns="http://www.w3.org/2000/svg" xmlns:xlink="http://www.w3.org/1999/xlink" x="0px"
	 y="0px" viewBox="0 0 142 81" style="enable-background:new 0 0 142 81;" xml:space="preserve">
<style type="text/css">
	.st0{fill:#FFFFFF;}
</style>
<g>
	<path class="st0" d="M0,0.8h3.1l6.2,21.8l8.7-21.8h0.6l8.6,21.8l6.3-21.8h3.1L27.8,31h-0.6l-9-22.9L9.1,31H8.6L0,0.8z"/>
	<path class="st0" d="M61.4,0c4.6,0,8.4,1.5,11.5,4.6s4.6,6.8,4.6,11.3c0,4.4-1.5,8.2-4.6,11.3s-6.8,4.6-11.2,4.6
		c-4.5,0-8.3-1.5-11.3-4.6s-4.6-6.8-4.6-11.1c0-2.9,0.7-5.6,2.1-8.1s3.3-4.4,5.7-5.8S58.6,0,61.4,0z M61.6,2.9
		c-2.2,0-4.4,0.6-6.4,1.7c-2,1.2-3.6,2.7-4.7,4.7c-1.1,2-1.7,4.2-1.7,6.6c0,3.6,1.2,6.6,3.7,9.1c2.5,2.5,5.5,3.7,9,3.7
		c2.3,0,4.5-0.6,6.5-1.7c2-1.1,3.5-2.7,4.7-4.7c1.1-2,1.7-4.2,1.7-6.6c0-2.4-0.6-4.6-1.7-6.5C71.6,7.4,70,5.9,68,4.7
		C66,3.5,63.8,2.9,61.6,2.9z"/>
	<path class="st0" d="M90.2,0.8h6c3.4,0,5.6,0.1,6.8,0.4c1.8,0.4,3.2,1.3,4.4,2.6c1.1,1.4,1.7,3,1.7,5c0,1.6-0.4,3.1-1.2,4.3
		c-0.8,1.2-1.9,2.2-3.3,2.8c-1.4,0.6-3.4,1-6,1l10.9,14h-3.7L94.9,17h-1.7v14h-3V0.8z M93.2,3.7V14l5.2,0c2,0,3.5-0.2,4.5-0.6
		c1-0.4,1.7-1,2.3-1.8c0.5-0.8,0.8-1.8,0.8-2.8c0-1-0.3-1.9-0.8-2.8c-0.5-0.8-1.3-1.4-2.2-1.8c-0.9-0.4-2.4-0.5-4.4-0.5H93.2z"/>
	<path class="st0" d="M121.7,0.8h3.1v11.3l12.1-11.3h4.1l-14.5,13.6L142,31h-4l-13.2-14.1V31h-3.1V0.8z"/>
	<path class="st0" d="M5.8,74.6l2.6-1.5c1.8,3.3,3.9,5,6.3,5c1,0,2-0.2,2.9-0.7c0.9-0.5,1.6-1.1,2-1.9c0.5-0.8,0.7-1.6,0.7-2.5
		c0-1-0.3-2-1-3c-0.9-1.3-2.7-3-5.2-4.8c-2.5-1.9-4.1-3.3-4.7-4.1c-1.1-1.4-1.6-3-1.6-4.6c0-1.3,0.3-2.5,0.9-3.6
		c0.6-1.1,1.5-1.9,2.7-2.6c1.1-0.6,2.4-0.9,3.7-0.9c1.4,0,2.8,0.4,4,1.1c1.2,0.7,2.5,2,3.9,3.9l-2.5,1.9c-1.1-1.5-2.1-2.5-2.9-3
		c-0.8-0.5-1.7-0.7-2.6-0.7c-1.2,0-2.2,0.4-3,1.1s-1.2,1.7-1.2,2.7c0,0.7,0.1,1.3,0.4,1.9c0.3,0.6,0.8,1.3,1.5,2
		c0.4,0.4,1.7,1.4,3.9,3c2.6,1.9,4.4,3.7,5.4,5.2c1,1.5,1.5,3,1.5,4.5c0,2.2-0.8,4.1-2.5,5.7c-1.7,1.6-3.7,2.4-6.1,2.4
		c-1.8,0-3.5-0.5-5-1.5C8.4,78.6,7.1,76.9,5.8,74.6z"/>
	<path class="st0" d="M36.1,50h3v12.7h15.4V50h3v30.2h-3V65.6H39.1v14.6h-3V50z"/>
	<path class="st0" d="M85.7,49.3c4.6,0,8.4,1.5,11.5,4.6c3.1,3.1,4.6,6.8,4.6,11.3c0,4.4-1.5,8.2-4.6,11.3
		c-3.1,3.1-6.8,4.6-11.2,4.6c-4.5,0-8.3-1.5-11.3-4.6c-3.1-3.1-4.6-6.8-4.6-11.1c0-2.9,0.7-5.6,2.1-8.1c1.4-2.5,3.3-4.4,5.7-5.8
		S82.9,49.3,85.7,49.3z M85.8,52.2c-2.2,0-4.4,0.6-6.4,1.7c-2,1.2-3.6,2.7-4.7,4.7c-1.1,2-1.7,4.2-1.7,6.6c0,3.6,1.2,6.6,3.7,9.1
		s5.5,3.7,9,3.7c2.3,0,4.5-0.6,6.5-1.7c2-1.1,3.5-2.7,4.7-4.7c1.1-2,1.7-4.2,1.7-6.6c0-2.4-0.6-4.6-1.7-6.5
		c-1.1-1.9-2.7-3.5-4.7-4.7C90.3,52.8,88.1,52.2,85.8,52.2z"/>
	<path class="st0" d="M114.4,50h6c3.4,0,5.8,0.2,7,0.5c1.7,0.4,3.1,1.3,4.2,2.6c1.1,1.3,1.6,3,1.6,5c0,2-0.5,3.7-1.6,5
		c-1.1,1.3-2.5,2.2-4.4,2.6c-1.4,0.3-3.9,0.5-7.7,0.5h-2.2v14.1h-3V50z M117.4,53v10.3l5.1,0.1c2.1,0,3.6-0.2,4.5-0.6
		c1-0.4,1.7-1,2.3-1.8c0.5-0.8,0.8-1.8,0.8-2.8c0-1-0.3-1.9-0.8-2.8c-0.5-0.8-1.3-1.4-2.2-1.8c-0.9-0.4-2.4-0.5-4.4-0.5H117.4z"/>
</g>
</svg>
