<?xml version="1.0" encoding="utf-8"?>
<!-- Generator: Adobe Illustrator 22.0.1, SVG Export Plug-In . SVG Version: 6.00 Build 0)  -->
<svg version="1.1" id="レイヤー_1" xmlns="http://www.w3.org/2000/svg" xmlns:xlink="http://www.w3.org/1999/xlink" x="0px"
	 y="0px" viewBox="0 0 210 31" style="enable-background:new 0 0 210 31;" xml:space="preserve">
<style type="text/css">
	.st0{fill:#FFFFFF;}
</style>
<g>
	<path class="st0" d="M29.1,6.2L26.8,8c-1.3-1.7-2.9-2.9-4.7-3.8c-1.8-0.9-3.8-1.3-6-1.3c-2.4,0-4.6,0.6-6.6,1.7
		c-2,1.1-3.6,2.6-4.7,4.6c-1.1,1.9-1.7,4.1-1.7,6.4c0,3.6,1.2,6.6,3.7,9c2.5,2.4,5.6,3.6,9.4,3.6c4.2,0,7.7-1.6,10.5-4.9l2.3,1.8
		c-1.5,1.9-3.3,3.3-5.6,4.3c-2.2,1-4.7,1.5-7.4,1.5c-5.2,0-9.3-1.7-12.3-5.2C1.3,22.9,0,19.4,0,15.3c0-4.3,1.5-8,4.6-10.9
		S11.5,0,16.1,0c2.8,0,5.3,0.5,7.5,1.6C25.8,2.7,27.7,4.3,29.1,6.2z"/>
	<path class="st0" d="M51,0c4.5,0,8.3,1.5,11.3,4.5c3,3,4.6,6.7,4.6,11c0,4.3-1.5,8-4.5,11c-3,3-6.7,4.5-11.1,4.5
		c-4.4,0-8.1-1.5-11.2-4.5c-3-3-4.6-6.6-4.6-10.9c0-2.8,0.7-5.5,2.1-7.9c1.4-2.4,3.3-4.3,5.7-5.7C45.6,0.7,48.2,0,51,0z M51.1,2.9
		c-2.2,0-4.3,0.6-6.3,1.7c-2,1.1-3.5,2.7-4.6,4.6c-1.1,1.9-1.7,4.1-1.7,6.4c0,3.5,1.2,6.5,3.7,8.9c2.5,2.4,5.4,3.6,8.9,3.6
		c2.3,0,4.4-0.6,6.4-1.7s3.5-2.6,4.6-4.6c1.1-1.9,1.7-4.1,1.7-6.4c0-2.3-0.6-4.5-1.7-6.4s-2.7-3.4-4.7-4.5
		C55.5,3.4,53.4,2.9,51.1,2.9z"/>
	<path class="st0" d="M76,30.3V0.7h0.6l19.8,22.6V0.7h2.9v29.5h-0.7L79.1,7.9v22.3H76z"/>
	<path class="st0" d="M106.7,3.6V0.7H123v2.9h-6.6v26.6h-3V3.6H106.7z"/>
	<path class="st0" d="M140.5,0.7l13.9,29.5h-3.2l-4.7-9.7h-12.8l-4.6,9.7h-3.3l14.1-29.5H140.5z M140.1,7L135,17.7h10.2L140.1,7z"/>
	<path class="st0" d="M187.8,6.2L185.4,8c-1.3-1.7-2.9-2.9-4.7-3.8c-1.8-0.9-3.8-1.3-6-1.3c-2.4,0-4.6,0.6-6.6,1.7
		c-2,1.1-3.6,2.6-4.7,4.6c-1.1,1.9-1.7,4.1-1.7,6.4c0,3.6,1.2,6.6,3.7,9c2.5,2.4,5.6,3.6,9.4,3.6c4.2,0,7.7-1.6,10.5-4.9l2.3,1.8
		c-1.5,1.9-3.3,3.3-5.6,4.3c-2.2,1-4.7,1.5-7.4,1.5c-5.2,0-9.3-1.7-12.3-5.2c-2.5-2.9-3.8-6.4-3.8-10.5c0-4.3,1.5-8,4.6-10.9
		S170.1,0,174.7,0c2.8,0,5.3,0.5,7.5,1.6C184.5,2.7,186.3,4.3,187.8,6.2z"/>
	<path class="st0" d="M193.7,3.6V0.7H210v2.9h-6.6v26.6h-3V3.6H193.7z"/>
</g>
</svg>
