<?xml version="1.0" encoding="utf-8"?>
<!-- Generator: Adobe Illustrator 22.0.1, SVG Export Plug-In . SVG Version: 6.00 Build 0)  -->
<svg version="1.1" id="レイヤー_1" xmlns="http://www.w3.org/2000/svg" xmlns:xlink="http://www.w3.org/1999/xlink" x="0px"
	 y="0px" viewBox="0 0 221 35" style="enable-background:new 0 0 221 35;" xml:space="preserve">
<g>
	<path d="M0,0.8h6.6c3.8,0,6.3,0.2,7.6,0.5c1.9,0.5,3.4,1.4,4.6,2.9c1.2,1.5,1.8,3.3,1.8,5.5c0,2.2-0.6,4.1-1.8,5.5
		c-1.2,1.4-2.8,2.4-4.8,2.9c-1.5,0.4-4.3,0.5-8.4,0.5H3.3v15.5H0V0.8z M3.3,4.1v11.3l5.6,0.1c2.3,0,3.9-0.2,5-0.6s1.9-1.1,2.5-2
		c0.6-0.9,0.9-2,0.9-3.1c0-1.1-0.3-2.1-0.9-3.1c-0.6-0.9-1.4-1.6-2.4-2c-1-0.4-2.6-0.6-4.8-0.6H3.3z"/>
	<path d="M31.5,0.8h6.6c3.7,0,6.2,0.2,7.5,0.5c2,0.5,3.6,1.4,4.8,2.9s1.8,3.3,1.8,5.5c0,1.8-0.4,3.4-1.3,4.8
		c-0.8,1.4-2.1,2.4-3.6,3.1c-1.6,0.7-3.7,1.1-6.5,1.1l11.9,15.5h-4.1L36.7,18.7h-1.9v15.5h-3.3V0.8z M34.8,4.1v11.3l5.7,0
		c2.2,0,3.8-0.2,4.9-0.6c1.1-0.4,1.9-1.1,2.5-2c0.6-0.9,0.9-2,0.9-3.1c0-1.1-0.3-2.1-0.9-3c-0.6-0.9-1.4-1.6-2.4-2
		c-1-0.4-2.6-0.6-4.9-0.6H34.8z"/>
	<path d="M79.3,0c5,0,9.2,1.7,12.6,5.1c3.4,3.4,5.1,7.5,5.1,12.4c0,4.9-1.7,9-5,12.4S84.4,35,79.5,35c-4.9,0-9-1.7-12.4-5.1
		c-3.4-3.4-5.1-7.5-5.1-12.3c0-3.2,0.8-6.2,2.3-8.9C65.9,6,68,3.9,70.7,2.3C73.3,0.8,76.2,0,79.3,0z M79.4,3.2c-2.4,0-4.8,0.6-7,1.9
		c-2.2,1.3-3.9,3-5.1,5.2s-1.8,4.6-1.8,7.3c0,4,1.4,7.3,4.1,10c2.7,2.7,6,4.1,9.8,4.1c2.6,0,4.9-0.6,7.1-1.9c2.2-1.3,3.9-3,5.1-5.1
		c1.2-2.2,1.8-4.6,1.8-7.3c0-2.6-0.6-5-1.8-7.2c-1.2-2.1-2.9-3.9-5.2-5.1C84.3,3.9,81.9,3.2,79.4,3.2z"/>
	<path d="M116.9,0.8h3.3v22.5c0,3.5-0.3,5.9-0.8,7.2c-0.5,1.4-1.4,2.4-2.7,3.2c-1.2,0.8-2.7,1.2-4.5,1.2c-1.3,0-2.6-0.3-3.9-0.8
		c-1.3-0.5-2.7-1.4-4.3-2.8l1.8-2.7c1.7,1.2,3.2,2.1,4.3,2.6c0.8,0.3,1.5,0.5,2.2,0.5c0.9,0,1.8-0.3,2.6-0.9
		c0.8-0.6,1.3-1.3,1.6-2.3c0.3-1,0.5-2.8,0.5-5.5V0.8z"/>
	<path d="M133.8,0.8h18.9v3.3h-15.6v10.4h15.5v3.3h-15.5v13.1h15.5v3.3h-18.8V0.8z"/>
	<path d="M194.6,7L192,9c-1.4-1.9-3.2-3.3-5.2-4.3c-2-1-4.2-1.5-6.6-1.5c-2.6,0-5.1,0.6-7.3,1.9c-2.2,1.3-4,3-5.2,5.1
		c-1.2,2.2-1.9,4.6-1.9,7.3c0,4.1,1.4,7.5,4.1,10.2c2.8,2.7,6.2,4.1,10.5,4.1c4.6,0,8.5-1.8,11.6-5.5l2.6,2
		c-1.6,2.1-3.7,3.7-6.2,4.9c-2.5,1.2-5.2,1.7-8.3,1.7c-5.8,0-10.3-1.9-13.7-5.8c-2.8-3.3-4.2-7.2-4.2-11.9c0-4.9,1.7-9,5.1-12.3
		c3.4-3.3,7.6-5,12.7-5c3.1,0,5.9,0.6,8.4,1.8C190.9,3.1,193,4.8,194.6,7z"/>
	<path d="M202.9,4.1V0.8H221v3.3h-7.4v30.1h-3.4V4.1H202.9z"/>
</g>
</svg>
