<?xml version="1.0" encoding="utf-8"?>
<!-- Generator: Adobe Illustrator 22.0.1, SVG Export Plug-In . SVG Version: 6.00 Build 0)  -->
<svg version="1.1" id="レイヤー_1" xmlns="http://www.w3.org/2000/svg" xmlns:xlink="http://www.w3.org/1999/xlink" x="0px"
	 y="0px" viewBox="0 0 705 374" style="enable-background:new 0 0 705 374;" xml:space="preserve">
<style type="text/css">
	.st0{fill:#FFFFFF;}
</style>
<g>
	<path class="st0" d="M16.1,113.2c-4.6,0-8.4-1.9-11.5-5.6C1.5,103.8,0,99.5,0,94.6c0-3.8,0.6-7.2,1.9-10.3c1.2-3.1,2.6-5.6,4-7.5
		c1.4-1.9,3.8-3.9,7.3-5.9c3.5-2,6.1-3.5,8-4.4c1.9-0.9,5.2-2.3,10-4.2c0.3-0.1,0.5-0.2,0.6-0.3v-5.7c0-5.2-0.5-8.9-1.6-11.1
		C29,43.1,26.9,42,23.6,42c-5.6,0-8.4,3.8-8.4,11.4v4L0.5,56.8c0-0.8,0-1.8,0.1-3c0.5-8,2.7-13.8,6.7-17.4c4-3.6,9.8-5.5,17.3-5.5
		c7.7,0,13.3,2.1,16.7,6.3c3.4,4.2,5.1,10.6,5.1,19v36.6c0,6,0.5,12.4,1.4,19.2H34.3c-0.9-4.5-1.6-8.4-2-11.8
		c-1.1,3.6-3.1,6.7-5.8,9.2C23.8,111.9,20.4,113.2,16.1,113.2z M22,100.4c1.9,0,3.8-0.7,5.6-2.2c1.8-1.5,3.2-3,4.1-4.4V71.1
		c-5.2,2.9-8.6,5.1-10.3,6.5c-4.3,3.5-6.5,7.7-6.5,12.5c0,3.2,0.6,5.8,1.8,7.6C17.9,99.5,19.7,100.4,22,100.4z"/>
	<path class="st0" d="M91,113.2c-6.1,0-10.5-1.6-13.2-4.8c-2.7-3.2-4.1-8-4.2-14.3V41.9h-8.4V32h8.4V8.7h14.8V32h12.9v9.9H88.5v51.2
		c0,3.2,0.5,5.5,1.5,6.8c1,1.3,2.9,2,5.8,2c2.1,0,3.9-0.1,5.5-0.3v10.9C96.9,112.9,93.5,113.2,91,113.2z"/>
	<path class="st0" d="M136.4,113.2c-4.6,0-8.4-1.9-11.5-5.6c-3.1-3.8-4.6-8.1-4.6-12.9c0-3.8,0.6-7.2,1.9-10.3
		c1.2-3.1,2.6-5.6,4-7.5c1.4-1.9,3.8-3.9,7.3-5.9c3.5-2,6.1-3.5,8-4.4c1.9-0.9,5.2-2.3,10-4.2c0.3-0.1,0.5-0.2,0.6-0.3v-5.7
		c0-5.2-0.5-8.9-1.6-11.1c-1.1-2.2-3.2-3.3-6.5-3.3c-5.6,0-8.4,3.8-8.4,11.4v4l-14.7-0.5c0-0.8,0-1.8,0.1-3c0.5-8,2.7-13.8,6.7-17.4
		c4-3.6,9.8-5.5,17.3-5.5c7.7,0,13.3,2.1,16.7,6.3c3.4,4.2,5.1,10.6,5.1,19v36.6c0,6,0.5,12.4,1.4,19.2h-13.5
		c-0.9-4.5-1.6-8.4-2-11.8c-1.1,3.6-3.1,6.7-5.8,9.2C144.2,111.9,140.7,113.2,136.4,113.2z M142.3,100.4c1.9,0,3.8-0.7,5.6-2.2
		c1.8-1.5,3.2-3,4.1-4.4V71.1c-5.2,2.9-8.6,5.1-10.3,6.5c-4.3,3.5-6.5,7.7-6.5,12.5c0,3.2,0.6,5.8,1.8,7.6
		C138.3,99.5,140,100.4,142.3,100.4z"/>
	<path class="st0" d="M190,112.1V0h14.9v112.1H190z"/>
	<path class="st0" d="M16.1,243.6c-4.6,0-8.4-1.9-11.5-5.6C1.5,234.2,0,229.9,0,225c0-3.8,0.6-7.2,1.9-10.3c1.2-3.1,2.6-5.6,4-7.5
		c1.4-1.9,3.8-3.9,7.3-5.9c3.5-2,6.1-3.5,8-4.4c1.9-0.9,5.2-2.3,10-4.2c0.3-0.1,0.5-0.2,0.6-0.3v-5.7c0-5.2-0.5-8.9-1.6-11.1
		c-1.1-2.2-3.2-3.3-6.5-3.3c-5.6,0-8.4,3.8-8.4,11.4v4l-14.7-0.5c0-0.8,0-1.8,0.1-3c0.5-8,2.7-13.8,6.7-17.4c4-3.6,9.8-5.5,17.3-5.5
		c7.7,0,13.3,2.1,16.7,6.3c3.4,4.2,5.1,10.6,5.1,19v36.6c0,6,0.5,12.4,1.4,19.2H34.3c-0.9-4.5-1.6-8.4-2-11.8
		c-1.1,3.6-3.1,6.7-5.8,9.2C23.8,242.3,20.4,243.6,16.1,243.6z M22,230.8c1.9,0,3.8-0.7,5.6-2.2c1.8-1.5,3.2-3,4.1-4.4v-22.6
		c-5.2,2.9-8.6,5.1-10.3,6.5c-4.3,3.5-6.5,7.7-6.5,12.5c0,3.2,0.6,5.8,1.8,7.6C17.9,229.9,19.7,230.8,22,230.8z"/>
	<path class="st0" d="M100.5,268.8v-31.5c-3.9,4.2-8.2,6.3-12.9,6.3c-7,0-12-2.5-15.3-7.5c-3.2-5-4.8-13.4-4.8-25.1v-15.5
		c0-5,0.3-9.4,0.8-13.1c0.5-3.8,1.5-7.3,2.8-10.6c1.4-3.3,3.4-5.9,6.1-7.7c2.7-1.8,6-2.7,9.9-2.7c4.7,0,9.2,2.1,13.3,6.2v-5.1h14.8
		v106.4H100.5z M91.4,231.9c2.9,0,6-1,9.1-3v-52.4c-3.3-2.3-6.5-3.5-9.4-3.5c-5.8,0-8.7,5.6-8.7,16.7v22.6c0,2.5,0.1,4.7,0.2,6.4
		c0.1,1.8,0.3,3.5,0.7,5.3c0.4,1.8,0.9,3.2,1.5,4.3c0.6,1.1,1.5,1.9,2.6,2.6C88.5,231.6,89.9,231.9,91.4,231.9z"/>
	<path class="st0" d="M150,243.5c-2.3,0-4.2-0.5-5.9-1.4c-1.6-0.9-2.9-2.2-3.8-3.9c-0.9-1.6-1.5-3.4-1.8-5.2
		c-0.4-1.8-0.5-3.8-0.5-5.9v-64.7h14.8v60.4c0,3.1,0.5,5.3,1.4,6.8c0.9,1.5,2.6,2.2,5,2.2c3,0,6.4-1.6,10.4-4.9v-64.5h14.8v80h-14.8
		v-7.9C163.3,240.5,156.7,243.5,150,243.5z"/>
	<path class="st0" d="M221.7,243.6c-4.6,0-8.4-1.9-11.5-5.6c-3.1-3.8-4.6-8.1-4.6-12.9c0-3.8,0.6-7.2,1.9-10.3
		c1.2-3.1,2.6-5.6,4-7.5c1.4-1.9,3.8-3.9,7.3-5.9c3.5-2,6.1-3.5,8-4.4c1.9-0.9,5.2-2.3,10-4.2c0.3-0.1,0.5-0.2,0.6-0.3v-5.7
		c0-5.2-0.5-8.9-1.6-11.1c-1.1-2.2-3.2-3.3-6.5-3.3c-5.6,0-8.4,3.8-8.4,11.4v4l-14.7-0.5c0-0.8,0-1.8,0.1-3c0.5-8,2.7-13.8,6.7-17.4
		c4-3.6,9.8-5.5,17.3-5.5c7.7,0,13.3,2.1,16.7,6.3c3.4,4.2,5.1,10.6,5.1,19v36.6c0,6,0.5,12.4,1.4,19.2h-13.5
		c-0.9-4.5-1.6-8.4-2-11.8c-1.1,3.6-3.1,6.7-5.8,9.2C229.4,242.3,225.9,243.6,221.7,243.6z M227.6,230.8c1.9,0,3.8-0.7,5.6-2.2
		c1.8-1.5,3.2-3,4.1-4.4v-22.6c-5.2,2.9-8.6,5.1-10.3,6.5c-4.3,3.5-6.5,7.7-6.5,12.5c0,3.2,0.6,5.8,1.8,7.6
		C223.5,229.9,225.3,230.8,227.6,230.8z"/>
	<path class="st0" d="M23.6,374c-3.9,0-7.2-0.5-10-1.5c-2.8-1-5-2.4-6.7-4.1c-1.7-1.7-3.1-4-4.1-6.8c-1-2.8-1.7-5.7-2-8.7
		c-0.4-3-0.5-6.6-0.5-10.7v-18.5c0-5.4,0.3-9.9,0.9-13.5c0.6-3.6,1.8-6.9,3.5-9.8c1.7-2.9,4.1-5.1,7.2-6.5c3.1-1.4,7-2.1,11.8-2.1
		c4.3,0,7.9,0.5,10.8,1.6c2.9,1,5.1,2.7,6.7,4.9c1.6,2.2,2.7,4.8,3.4,7.8c0.7,3,1,6.6,1,10.9v4.8H32.1v-4.9c0-5.3-0.6-9-1.8-11.1
		c-1.2-2.1-3.3-3.1-6.5-3.1c-3.6,0-6,1.3-7.1,3.8c-1.1,2.5-1.7,7.2-1.7,14.2v25.2c0,6.8,0.6,11.3,1.9,13.7c1.2,2.4,3.6,3.5,6.9,3.5
		c1.4,0,2.7-0.2,3.7-0.7c1-0.5,1.8-1.1,2.4-1.8c0.6-0.7,1-1.7,1.4-3c0.3-1.3,0.5-2.5,0.6-3.8c0.1-1.2,0.1-2.8,0.1-4.6v-6.5h13.4v5.5
		c0,4.3-0.3,7.9-1,10.9c-0.7,3-1.8,5.7-3.5,8c-1.6,2.3-3.9,4-6.7,5.2C31.4,373.4,27.9,374,23.6,374z"/>
	<path class="st0" d="M89.3,374c-4.4,0-8.1-0.7-11.1-2c-3-1.4-5.5-3.4-7.2-6c-1.8-2.7-3-5.7-3.8-9.2c-0.8-3.5-1.2-7.6-1.2-12.3
		v-23.2c0-4.7,0.4-8.8,1.2-12.3c0.8-3.5,2.1-6.6,3.8-9.2c1.8-2.7,4.2-4.7,7.2-6c3-1.4,6.8-2,11.1-2c8.4,0,14.4,2.5,18,7.6
		c3.6,5,5.3,12.4,5.3,22v23.2c0,9.6-1.8,16.9-5.3,22C103.7,371.5,97.7,374,89.3,374z M89.3,363.1c1.4,0,2.5-0.2,3.6-0.6
		s1.8-1.1,2.4-2c0.6-0.9,1.1-1.9,1.4-2.7c0.4-0.9,0.6-2.1,0.8-3.8c0.2-1.6,0.2-3,0.3-4c0-1,0-2.5,0-4.5v-25.1c0-1.7,0-3,0-3.9
		c0-0.9-0.1-2-0.2-3.5c-0.1-1.5-0.2-2.6-0.4-3.4c-0.2-0.8-0.5-1.7-0.9-2.7c-0.4-1-0.9-1.8-1.5-2.3c-0.6-0.5-1.4-0.9-2.3-1.3
		c-0.9-0.4-1.9-0.6-3.1-0.6c-1.2,0-2.2,0.2-3.1,0.6c-0.9,0.4-1.7,0.8-2.3,1.3c-0.6,0.5-1.1,1.3-1.5,2.3c-0.4,1-0.7,1.9-0.9,2.7
		c-0.2,0.8-0.4,1.9-0.4,3.4c-0.1,1.5-0.1,2.7-0.2,3.5c0,0.9,0,2.1,0,3.9v25.1c0,1.7,0,3,0,3.9c0,0.9,0.1,2,0.2,3.5
		c0.1,1.5,0.2,2.6,0.4,3.4c0.2,0.8,0.5,1.7,0.9,2.7c0.4,1,0.9,1.8,1.5,2.3c0.6,0.5,1.3,1,2.3,1.3C87,362.9,88.1,363.1,89.3,363.1z"
		/>
	<path class="st0" d="M156.5,374c-4.4,0-8.1-0.7-11.1-2c-3-1.4-5.5-3.4-7.2-6c-1.8-2.7-3-5.7-3.8-9.2c-0.8-3.5-1.2-7.6-1.2-12.3
		v-23.2c0-4.7,0.4-8.8,1.2-12.3c0.8-3.5,2.1-6.6,3.8-9.2c1.8-2.7,4.2-4.7,7.2-6c3-1.4,6.8-2,11.1-2c8.4,0,14.4,2.5,18,7.6
		c3.6,5,5.3,12.4,5.3,22v23.2c0,9.6-1.8,16.9-5.3,22C171,371.5,165,374,156.5,374z M156.5,363.1c1.4,0,2.5-0.2,3.6-0.6
		s1.8-1.1,2.4-2c0.6-0.9,1.1-1.9,1.4-2.7c0.4-0.9,0.6-2.1,0.8-3.8c0.2-1.6,0.2-3,0.3-4c0-1,0-2.5,0-4.5v-25.1c0-1.7,0-3,0-3.9
		c0-0.9-0.1-2-0.2-3.5c-0.1-1.5-0.2-2.6-0.4-3.4c-0.2-0.8-0.5-1.7-0.9-2.7c-0.4-1-0.9-1.8-1.5-2.3c-0.6-0.5-1.4-0.9-2.3-1.3
		c-0.9-0.4-1.9-0.6-3.1-0.6c-1.2,0-2.2,0.2-3.1,0.6c-0.9,0.4-1.7,0.8-2.3,1.3c-0.6,0.5-1.1,1.3-1.5,2.3c-0.4,1-0.7,1.9-0.9,2.7
		c-0.2,0.8-0.4,1.9-0.4,3.4c-0.1,1.5-0.1,2.7-0.2,3.5c0,0.9,0,2.1,0,3.9v25.1c0,1.7,0,3,0,3.9c0,0.9,0.1,2,0.2,3.5
		c0.1,1.5,0.2,2.6,0.4,3.4c0.2,0.8,0.5,1.7,0.9,2.7c0.4,1,0.9,1.8,1.5,2.3c0.6,0.5,1.3,1,2.3,1.3
		C154.3,362.9,155.4,363.1,156.5,363.1z"/>
	<path class="st0" d="M201.9,372.9v-80h14.8v11.4c2.8-4.6,5.6-7.8,8.5-9.7c2.9-1.8,6-2.8,9.2-2.8c0.9,0,1.7,0,2.4,0.1v16.4
		c-2.8-1-5.5-1.6-8.1-1.6c-2.5,0-4.7,0.6-6.5,1.7c-1.9,1.1-3.7,3.1-5.5,6v58.5H201.9z"/>
	<path class="st0" d="M275,374c-7,0-12-2.5-15.3-7.5c-3.2-5-4.8-13.4-4.8-25.1v-15.5c0-4,0.1-7.5,0.4-10.6c0.3-3.1,0.9-6.2,1.8-9.2
		c0.9-3,2-5.6,3.4-7.6c1.4-2,3.3-3.6,5.7-4.9c2.4-1.2,5.1-1.9,8.3-1.9c4.8,0,9.3,2.1,13.3,6.2v-37.2h14.8v112.1h-14.8v-5.1
		C284,371.9,279.7,374,275,374z M278.8,362.3c2.9,0,5.9-1,9.1-3v-52.4c-3.2-2.3-6.4-3.5-9.3-3.5c-5.8,0-8.7,5.6-8.7,16.7v22.6
		c0,2.5,0.1,4.7,0.2,6.4c0.1,1.8,0.3,3.5,0.7,5.3c0.4,1.8,0.9,3.2,1.5,4.3c0.6,1.1,1.5,1.9,2.6,2.6
		C275.9,362,277.2,362.3,278.8,362.3z"/>
	<path class="st0" d="M326,281v-15.5h14.9V281H326z M326,372.9v-80h14.8v80H326z"/>
	<path class="st0" d="M364.2,372.9v-80H379v7.9c6.3-6,12.8-9,19.6-9c2.3,0,4.2,0.5,5.9,1.4c1.6,0.9,2.9,2.2,3.8,3.9
		c0.9,1.6,1.5,3.4,1.8,5.2c0.4,1.8,0.5,3.8,0.5,5.9v64.7h-14.8v-60.4c0-3.1-0.5-5.3-1.4-6.8c-0.9-1.5-2.6-2.2-5-2.2
		c-3,0-6.4,1.6-10.4,4.9v64.5H364.2z"/>
	<path class="st0" d="M447.6,374c-4.6,0-8.4-1.9-11.5-5.6c-3.1-3.8-4.6-8.1-4.6-12.9c0-3.8,0.6-7.2,1.9-10.3c1.2-3.1,2.6-5.6,4-7.5
		c1.4-1.9,3.8-3.9,7.3-5.9c3.5-2,6.1-3.5,8-4.4c1.9-0.9,5.2-2.3,10-4.2c0.3-0.1,0.5-0.2,0.6-0.3v-5.7c0-5.2-0.5-8.9-1.6-11.1
		c-1.1-2.2-3.2-3.3-6.5-3.3c-5.6,0-8.4,3.8-8.4,11.4v4l-14.7-0.5c0-0.8,0-1.8,0.1-3c0.5-8,2.7-13.8,6.7-17.4c4-3.6,9.8-5.5,17.3-5.5
		c7.7,0,13.3,2.1,16.7,6.3c3.4,4.2,5.1,10.6,5.1,19v36.6c0,6,0.5,12.4,1.4,19.2h-13.5c-0.9-4.5-1.6-8.4-2-11.8
		c-1.1,3.6-3.1,6.7-5.8,9.2C455.3,372.7,451.8,374,447.6,374z M453.5,361.2c1.9,0,3.8-0.7,5.6-2.2c1.8-1.5,3.2-3,4.1-4.4v-22.6
		c-5.2,2.9-8.6,5.1-10.3,6.5c-4.3,3.5-6.5,7.7-6.5,12.5c0,3.2,0.6,5.8,1.8,7.6C449.4,360.3,451.2,361.2,453.5,361.2z"/>
	<path class="st0" d="M522.4,374c-6.1,0-10.5-1.6-13.2-4.8c-2.7-3.2-4.1-8-4.2-14.3v-52.2h-8.4v-9.9h8.4v-23.3h14.8v23.3h12.9v9.9
		h-12.9v51.2c0,3.2,0.5,5.5,1.5,6.8c1,1.3,2.9,2,5.8,2c2.1,0,3.9-0.1,5.5-0.3v10.9C528.4,373.7,525,374,522.4,374z"/>
	<path class="st0" d="M553.3,281v-15.5h14.9V281H553.3z M553.3,372.9v-80h14.8v80H553.3z"/>
	<path class="st0" d="M613.4,374c-4.4,0-8.1-0.7-11.1-2c-3-1.4-5.5-3.4-7.2-6c-1.8-2.7-3-5.7-3.8-9.2c-0.8-3.5-1.2-7.6-1.2-12.3
		v-23.2c0-4.7,0.4-8.8,1.2-12.3c0.8-3.5,2.1-6.6,3.8-9.2c1.8-2.7,4.2-4.7,7.2-6c3-1.4,6.8-2,11.1-2c8.4,0,14.4,2.5,18,7.6
		c3.6,5,5.3,12.4,5.3,22v23.2c0,9.6-1.8,16.9-5.3,22C627.9,371.5,621.9,374,613.4,374z M613.4,363.1c1.4,0,2.5-0.2,3.6-0.6
		c1-0.4,1.8-1.1,2.4-2c0.6-0.9,1.1-1.9,1.4-2.7c0.4-0.9,0.6-2.1,0.8-3.8c0.2-1.6,0.2-3,0.3-4c0-1,0-2.5,0-4.5v-25.1c0-1.7,0-3,0-3.9
		c0-0.9-0.1-2-0.2-3.5c-0.1-1.5-0.2-2.6-0.4-3.4c-0.2-0.8-0.5-1.7-0.9-2.7c-0.4-1-0.9-1.8-1.5-2.3c-0.6-0.5-1.4-0.9-2.3-1.3
		c-0.9-0.4-1.9-0.6-3.1-0.6c-1.2,0-2.2,0.2-3.1,0.6c-0.9,0.4-1.7,0.8-2.3,1.3c-0.6,0.5-1.1,1.3-1.5,2.3c-0.4,1-0.7,1.9-0.9,2.7
		c-0.2,0.8-0.4,1.9-0.4,3.4c-0.1,1.5-0.1,2.7-0.2,3.5c0,0.9,0,2.1,0,3.9v25.1c0,1.7,0,3,0,3.9c0,0.9,0.1,2,0.2,3.5
		c0.1,1.5,0.2,2.6,0.4,3.4c0.2,0.8,0.5,1.7,0.9,2.7c0.4,1,0.9,1.8,1.5,2.3c0.6,0.5,1.3,1,2.3,1.3
		C611.2,362.9,612.3,363.1,613.4,363.1z"/>
	<path class="st0" d="M658.6,372.9v-80h14.8v7.9c6.3-6,12.8-9,19.6-9c2.3,0,4.2,0.5,5.9,1.4c1.6,0.9,2.9,2.2,3.8,3.9
		c0.9,1.6,1.5,3.4,1.8,5.2c0.4,1.8,0.5,3.8,0.5,5.9v64.7h-14.8v-60.4c0-3.1-0.5-5.3-1.4-6.8c-0.9-1.5-2.6-2.2-5-2.2
		c-3,0-6.4,1.6-10.4,4.9v64.5H658.6z"/>
</g>
</svg>
