<?xml version="1.0" encoding="utf-8"?>
<!-- Generator: Adobe Illustrator 22.0.1, SVG Export Plug-In . SVG Version: 6.00 Build 0)  -->
<svg version="1.1" id="レイヤー_1" xmlns="http://www.w3.org/2000/svg" xmlns:xlink="http://www.w3.org/1999/xlink" x="0px"
	 y="0px" viewBox="0 0 337 415" style="enable-background:new 0 0 337 415;" xml:space="preserve">
<g>
	<path d="M3,2.4h9.6l19.1,67.6L58.6,2.4h1.9l26.6,67.6l19.5-67.6h9.5L89.2,96.1h-1.7L59.7,25.2L31.3,96.1h-1.7L3,2.4z"/>
	<path d="M142.2,2.4h9.4v39.3h47.7V2.4h9.4v93.8h-9.4V50.9h-47.7v45.3h-9.4V2.4z"/>
	<path d="M287,0c14.2,0,26.1,4.7,35.6,14.2c9.6,9.5,14.3,21.1,14.3,35c0,13.7-4.8,25.4-14.3,34.9c-9.5,9.6-21.2,14.3-34.9,14.3
		c-13.9,0-25.6-4.8-35.2-14.3c-9.6-9.5-14.3-21-14.3-34.5c0-9,2.2-17.4,6.5-25.1c4.4-7.7,10.3-13.7,17.8-18.1
		C270.1,2.2,278.3,0,287,0z M287.4,9.1c-6.9,0-13.5,1.8-19.7,5.4c-6.2,3.6-11.1,8.5-14.5,14.6c-3.5,6.1-5.2,12.9-5.2,20.5
		c0,11.1,3.9,20.6,11.6,28.2c7.7,7.7,17,11.5,27.9,11.5c7.3,0,14-1.8,20.2-5.3c6.2-3.5,11-8.4,14.5-14.5c3.5-6.1,5.2-12.9,5.2-20.4
		c0-7.4-1.7-14.2-5.2-20.2c-3.5-6-8.3-10.8-14.6-14.4S294.5,9.1,287.4,9.1z"/>
	<path d="M3,161.8h9.6l19.1,67.6l26.9-67.6h1.9l26.6,67.6l19.5-67.6h9.5l-26.9,93.8h-1.7l-27.8-70.9l-28.3,70.9h-1.7L3,161.8z"/>
	<path d="M142.4,161.8h53.7v9.2h-44.3v29.4h44v9.2h-44v36.8h44v9.2h-53.3V161.8z"/>
	<path d="M46.6,321.2L90.3,415H80.2l-14.7-30.9H25L10.4,415H0l44.3-93.8H46.6z M45.4,341.2l-16.1,33.9h32L45.4,341.2z"/>
	<path d="M115.3,321.2H134c10.4,0,17.5,0.4,21.1,1.3c5.6,1.3,10.1,4,13.6,8.2c3.5,4.2,5.2,9.3,5.2,15.5c0,5.1-1.2,9.6-3.6,13.5
		c-2.4,3.9-5.8,6.8-10.3,8.8c-4.5,2-10.6,3-18.5,3l33.7,43.5h-11.6L130,371.5h-5.3V415h-9.4V321.2z M124.7,330.4v31.9l16.1,0.1
		c6.3,0,10.9-0.6,13.9-1.8c3-1.2,5.3-3.1,7-5.7c1.7-2.6,2.5-5.5,2.5-8.8c0-3.1-0.9-6-2.6-8.6c-1.7-2.6-3.9-4.4-6.7-5.5
		c-2.8-1.1-7.4-1.7-13.8-1.7H124.7z"/>
	<path d="M203.9,321.2h53.7v9.2h-44.3v29.4h44v9.2h-44v36.8h44v9.2h-53.3V321.2z"/>
</g>
</svg>
